<?xml version="1.0" encoding="UTF-8"?>
<svg width="126px" height="40px" viewBox="0 0 126 40" version="1.1" xmlns="http://www.w3.org/2000/svg" xmlns:xlink="http://www.w3.org/1999/xlink">
    <title>E37BA9D9-AB6D-4A28-A640-43394AADDB23</title>
    <g id="Screens-1" stroke="none" stroke-width="1" fill="none" fill-rule="evenodd">
        <g id="Index" transform="translate(-264.000000, -16.000000)">
            <g id="logo" transform="translate(264.000000, 16.000000)">
                <rect id="Rectangle" x="0" y="0" width="126" height="40"></rect>
                <path d="M57.5356,8 C58.5739,8 59.5473,8.162162 60.3909,8.486486 C61.2345,8.81081 61.9807,9.2 62.5972,9.65405 C63.1813,10.14054 63.668,10.65946 63.9924,11.24324 C64.3169,11.82703 64.5116,12.34595 64.5116,12.86486 C64.5116,13.51351 64.3169,14 63.9275,14.38919 C63.5382,14.77838 63.0839,14.97297 62.5648,14.97297 C62.0781,14.97297 61.7212,14.87568 61.494,14.68108 C61.2345,14.48649 61.0074,14.22703 60.7802,13.83784 C60.4558,13.38378 60.0664,12.96216 59.5797,12.54054 C59.093,12.11892 58.4116,11.89189 57.5356,11.89189 C56.4649,11.89189 55.6537,12.15135 55.1021,12.67027 C54.5505,13.18919 54.2909,13.83784 54.2909,14.64865 C54.2909,15.36216 54.5505,15.91351 55.0697,16.33513 C55.5888,16.75676 56.2702,17.11351 57.0489,17.43784 C57.8276,17.76216 58.7037,18.0865 59.6446,18.4108 C60.5531,18.7351 61.4292,19.1243 62.2079,19.6432 C62.9866,20.1622 63.668,20.8432 64.1871,21.6216 C64.7063,22.4 64.9983,23.4378 64.9983,24.7027 C64.9983,25.8054 64.8036,26.8108 64.4467,27.7189 C64.0898,28.627 63.5706,29.373 62.8893,30.0216 C62.2079,30.6703 61.3643,31.1568 60.3909,31.4811 C59.4175,31.8378 58.2819,32 57.0489,32 C55.9782,32 55.0048,31.8378 54.0963,31.4811 C53.3013625,31.1689 52.5809203,30.7822813 51.9785184,30.3211098 L51.7277,30.1189 C51.0463,29.6 50.5271,29.0162 50.1378,28.3676 C49.7484,27.7514 49.5862,27.1676 49.5862,26.6486 C49.5862,26 49.7484,25.5135 50.1378,25.1243 C50.5271,24.7351 51.0463,24.5405 51.6952,24.5405 C52.1819,24.5405 52.5713,24.7027 52.8308,24.9622 C53.0904,25.2216 53.2851,25.5135 53.4798,25.8378 C53.8367,26.5514 54.3234,27.1351 54.9074,27.5243 C55.4915,27.9135 56.2053,28.1081 57.0489,28.1081 C58.1845,28.1081 59.093,27.8162 59.7744,27.2 C60.4233,26.5838 60.7802,25.8703 60.7802,25.027 C60.7802,24.2811 60.4882,23.6973 59.9691,23.2432 C59.4499,22.7892 58.7686,22.4 57.9898,22.0757 C57.2111,21.7514 56.3351,21.3946 55.4266,21.0703 C54.4856,20.7459 53.6096,20.3568 52.8308,19.8378 C52.0521,19.3514 51.3708,18.7027 50.8516,17.92432 C50.3325,17.14595 50.0729,16.10811 50.0729,14.81081 C50.0729,13.83784 50.2351,12.96216 50.592,12.11892 C50.949,11.27568 51.4681,10.56216 52.117,9.94595 C52.766,9.36216 53.5447,8.875676 54.4532,8.518918 C55.3617,8.194594 56.4,8 57.5356,8 Z M20.8164,8.648648 C21.3679,8.648648 21.8222,8.843244 22.2116,9.2 C22.5685,9.58919 22.7631,10.04324 22.7631,10.59459 C22.7631,11.17838 22.5685,11.63243 22.2116,11.98919 C21.8654667,12.3351367 21.4680543,12.5017016 20.9966776,12.5344451 L20.8164,12.54054 L12.21804,12.54054 L12.21804,19.027 L17.73394,19.027 C18.2855,19.027 18.7398,19.2216 19.1291,19.5784 C19.486,19.9676 19.6807,20.4216 19.6807,20.973 C19.6807,21.5568 19.486,22.0108 19.1291,22.3676 C18.7830556,22.7135556 18.3856531,22.8800741 17.9142354,22.9128071 L17.73394,22.9189 L12.21804,22.9189 L12.21804,29.4054 C12.21804,30.0541 12.02336,30.573 11.634,30.9622 C11.24465,31.3514 10.75795,31.5135 10.10902,31.5135 C9.46009,31.5135 8.940947,31.3514 8.55159,30.9622 C8.205494,30.6162444 8.03885558,30.1678099 8.00609761,29.6168261 L8,29.4054 L8,10.75676 C8,10.10811 8.162232,9.62162 8.55159,9.23243 C8.89768511,8.88648689 9.34632719,8.6942939 9.89751692,8.65585525 L10.10902,8.648648 L20.8164,8.648648 Z M32.1968,8.648648 C33.3324,8.648648 34.3707,8.843244 35.3116,9.2 C36.2201,9.58919 37.0313,10.07568 37.7127,10.72432 C38.3616,11.37297 38.8807,12.11892 39.2701,12.96216 C39.627,13.83784 39.8217,14.77838 39.8217,15.78378 C39.8217,16.88649 39.627,17.82703 39.2701,18.573 C38.9132,19.3514 38.5238,19.9676 38.1345,20.4216 C37.6894714,20.922 37.1968347,21.3271102 36.6769303,21.6368676 L36.4148,21.7838 L36.4148,21.9459 L39.8217,27.7838 L39.8839792,27.904708 L39.8839792,27.904708 L40.0319184,28.176092 L40.0319184,28.176092 L40.211,28.4973 L40.211,28.4973 C40.3733,28.7892 40.4706,29.0811 40.4706,29.4054 C40.4706,30.0541 40.2759,30.573 39.919,30.9622 C39.5297,31.3514 39.0754,31.5135 38.5238,31.5135 C38.1345,31.5135 37.7776,31.4487 37.518,31.3189 C37.2584,31.1892 37.0313,31.027 36.8691,30.8324 C36.6744,30.6378 36.5446,30.4757 36.4473,30.2811 C36.37425,30.15945 36.3194812,30.0560812 36.2829937,29.9709516 L36.2526,29.8919 L32.1968,22.9189 L28.6277,22.9189 L28.6277,29.4054 C28.6277,30.0541 28.433,30.573 28.0436,30.9622 C27.6543,31.3514 27.1676,31.5135 26.5186,31.5135 C25.8697,31.5135 25.3506,31.3514 24.9612,30.9622 C24.6151556,30.6162444 24.4484691,30.1678099 24.4156999,29.6168261 L24.4096,29.4054 L24.4096,10.75676 C24.4096,10.10811 24.5719,9.62162 24.9612,9.23243 C25.3073333,8.88648689 25.7559457,8.6942939 26.3071073,8.65585525 L26.5186,8.648648 L32.1968,8.648648 Z M44.8611,8.486486 C45.51,8.486486 45.9967,8.68108 46.3861,9.07027 C46.7322333,9.41621667 46.9244506,9.83904235 46.9628923,10.3842933 L46.9701,10.59459 L46.9701,29.4054 C46.9701,30.0541 46.7755,30.573 46.3861,30.9622 C45.9967,31.3514 45.51,31.5135 44.8611,31.5135 C44.2122,31.5135 43.693,31.3514 43.3037,30.9622 C42.9575667,30.6162444 42.7909494,30.1678099 42.7581966,29.6168261 L42.7521,29.4054 L42.7521,10.59459 C42.7521,9.94595 42.9143,9.45946 43.3037,9.07027 C43.693,8.68108 44.2122,8.486486 44.8611,8.486486 Z M75.5675,8.648648 C76.5734,8.648648 77.5143,8.843244 78.3579,9.16757 C79.2015,9.52432 79.9478,9.97838 80.5643,10.56216 C81.1808,11.14595 81.6675,11.85946 82.0244,12.63784 C82.3488,13.41622 82.5435,14.25946 82.5435,15.13514 C82.5435,15.91351 82.3813,16.56216 82.1217,17.08108 C81.8621,17.6 81.5701,18.0216 81.2457,18.3135 C80.9212,18.6378333 80.5517,18.8945972 80.1746421,19.0837917 L79.9478,19.1892 L79.9478,19.3514 C80.5967,19.5784 81.2132,19.9027 81.7324,20.3568 C82.1866,20.7784 82.6084,21.3297 82.9653,21.9784 C83.3222,22.627 83.5169,23.5027 83.5169,24.5405 C83.5169,25.4811 83.3222,26.3568 82.9653,27.2 C82.576,28.0432 82.0893,28.7568 81.4403,29.373 C80.7914,29.9892 80.0127,30.4757 79.1366,30.8324 C78.3416625,31.1446 77.4970359,31.3078094 76.6027873,31.3437336 L76.2165,31.3514 L69.7272,31.3514 C69.0782,31.3514 68.5591,31.1892 68.1697,30.8 C67.8236556,30.4540444 67.6569691,30.0056099 67.6241999,29.4546261 L67.6181,29.2432 L67.6181,10.75676 C67.6181,10.10811 67.7804,9.62162 68.1697,9.23243 C68.5158333,8.88648689 68.9644457,8.6942939 69.5156775,8.65585525 L69.7272,8.648648 L75.5675,8.648648 Z M98.9354,8.648648 C99.487,8.648648 99.9412,8.843244 100.3306,9.2 C100.6875,9.58919 100.8822,10.04324 100.8822,10.59459 C100.8822,11.17838 100.6875,11.63243 100.3306,11.98919 C99.9844667,12.3351367 99.5871333,12.5017016 99.115704,12.5344451 L98.9354,12.54054 L90.3371,12.54054 L90.3371,18.0541 L96.3397,18.0541 C96.8913,18.0541 97.3455,18.2486 97.7349,18.6054 C98.0918,18.9946 98.2865,19.4486 98.2865,20 C98.2865,20.5838 98.0918,21.0378 97.7349,21.3946 C97.3887667,21.7405556 96.9914333,21.9070741 96.520004,21.9398071 L96.3397,21.9459 L90.3371,21.9459 L90.3371,27.4595 L99.2599,27.4595 C99.8115,27.4595 100.2657,27.6541 100.6551,28.0108 C101.012,28.4 101.2066,28.8541 101.2066,29.4054 C101.2066,29.9892 101.012,30.4432 100.6551,30.8 C100.308967,31.1459556 99.9116333,31.3125531 99.440204,31.3453037 L99.2599,31.3514 L88.2281,31.3514 C87.5791,31.3514 87.06,31.1892 86.6706,30.8 C86.3245556,30.4540444 86.1578691,30.0056099 86.1250999,29.4546261 L86.119,29.2432 L86.119,10.75676 C86.119,10.10811 86.2813,9.62162 86.6706,9.23243 C87.0167333,8.88648689 87.4653457,8.6942939 88.0165775,8.65585525 L88.2281,8.648648 L98.9354,8.648648 Z M115.979,8.648648 C116.53,8.648648 116.985,8.843244 117.374,9.2 C117.731,9.58919 117.926,10.04324 117.926,10.59459 C117.926,11.17838 117.731,11.63243 117.374,11.98919 C117.028222,12.3351367 116.630296,12.5017016 116.159152,12.5344451 L115.979,12.54054 L107.3804,12.54054 L107.3804,18.0541 L113.383,18.0541 C113.935,18.0541 114.389,18.2486 114.778,18.6054 C115.135,18.9946 115.33,19.4486 115.33,20 C115.33,20.5838 115.135,21.0378 114.778,21.3946 C114.432222,21.7405556 114.035086,21.9070741 113.563416,21.9398071 L113.383,21.9459 L107.3804,21.9459 L107.3804,27.4595 L116.303,27.4595 C116.855,27.4595 117.309,27.6541 117.698,28.0108 C118.055,28.4 118.25,28.8541 118.25,29.4054 C118.25,29.9892 118.055,30.4432 117.698,30.8 C117.352222,31.1459556 116.955086,31.3125531 116.483416,31.3453037 L116.303,31.3514 L105.2714,31.3514 C104.6225,31.3514 104.1033,31.1892 103.714,30.8 C103.367867,30.4540444 103.201249,30.0056099 103.168497,29.4546261 L103.1624,29.2432 L103.1624,10.75676 C103.1624,10.10811 103.3246,9.62162 103.714,9.23243 C104.060044,8.88648689 104.508726,8.6942939 105.059904,8.65585525 L105.2714,8.648648 L115.979,8.648648 Z M76.0542,21.4595 L71.8362,21.4595 L71.8362,27.4595 L76.2165,27.4595 C77.125,27.4595 77.8388,27.2 78.3579,26.6811 C78.8771,26.1622 79.1366,25.4486 79.1366,24.5405 C79.1366,23.5676 78.8446,22.8216 78.3255,22.2703 C77.8198667,21.7946417 77.1506312,21.5097264 76.2928375,21.4655437 L76.0542,21.4595 Z M32.1968,12.54054 L28.6277,12.54054 L28.6277,19.027 L32.1968,19.027 C33.1702,19.027 33.9489,18.7351 34.5329,18.1514 C35.117,17.56757 35.4414,16.75676 35.4414,15.78378 C35.4414,14.81081 35.117,14.03243 34.5329,13.44865 C33.9975667,12.9135092 33.2986312,12.5963952 32.4360937,12.5472591 L32.1968,12.54054 Z M75.5675,12.54054 L71.8362,12.54054 L71.8362,17.89189 L75.4053,17.89189 C77.2223,17.89189 78.1632,16.98378 78.1632,15.13514 C78.1632,14.32432 77.9361,13.67568 77.4819,13.22162 C77.0689,12.8088473 76.4950736,12.5836944 75.7846881,12.5461688 L75.5675,12.54054 Z" id="Shape" fill="#FF4E5E"></path>
            </g>
        </g>
    </g>
</svg>